{"title":"Double Di Trouble (2014) [1CD] DVDSCR Rip Xvid Mp3 TeamTNT Exclu","uid":10938558,"size":734546315,"categoryP":"video","categoryS":"movies","magnet":"?xt=urn:btih:1b06c3fbdf0016be50cedb00bd3a066e003ca9a8&amp;dn=Double+Di+Trouble+%282014%29+%5B1CD%5D+DVDSCR+Rip+Xvid+Mp3+TeamTNT+Exclu&amp;tr=udp%3A%2F%2Ftracker.openbittorrent.com%3A80&amp;tr=udp%3A%2F%2Fopen.demonii.com%3A1337&amp;tr=udp%3A%2F%2Ftracker.coppersurfer.tk%3A6969&amp;tr=udp%3A%2F%2Fexodus.desync.com%3A6969","seeders":1,"leechers":0,"uploader":"inovai","files":19,"time":1409472080,"description":"Double Di Trouble (2014)[1CD] DVDSCR Rip Xvid Mp3 TEAMTNT Exclusive\n\nCover:\n &lt;a href=&quot;\nhttp://forum.primetimeshow.in/viewtopic.php?f=7&amp;t=622&quot; rel=&quot;nofollow&quot; target=&quot;_NEW&quot;&gt;\nhttp://forum.primetimeshow.in/viewtopic.php?f=7&amp;t=622&lt;/a&gt;\n\n\n~~~~Screen Shots~~~~\n &lt;a href=&quot;\nhttp://img.primetimeshow.in/share.php?id=1FD7_5402B91E&quot; rel=&quot;nofollow&quot; target=&quot;_NEW&quot;&gt;\nhttp://img.primetimeshow.in/share.php?id=1FD7_5402B91E&lt;/a&gt;\n &lt;a href=&quot;\nhttp://img.primetimeshow.in/share.php?id=F065_5402B91E&quot; rel=&quot;nofollow&quot; target=&quot;_NEW&quot;&gt;\nhttp://img.primetimeshow.in/share.php?id=F065_5402B91E&lt;/a&gt;\n &lt;a href=&quot;\nhttp://img.primetimeshow.in/share.php?id=F9ED_5402B91E&quot; rel=&quot;nofollow&quot; target=&quot;_NEW&quot;&gt;\nhttp://img.primetimeshow.in/share.php?id=F9ED_5402B91E&lt;/a&gt;\n &lt;a href=&quot;\nhttp://img.primetimeshow.in/share.php?id=2B3F_5402B91E&quot; rel=&quot;nofollow&quot; target=&quot;_NEW&quot;&gt;\nhttp://img.primetimeshow.in/share.php?id=2B3F_5402B91E&lt;/a&gt;\n &lt;a href=&quot;\nhttp://img.primetimeshow.in/share.php?id=5D68_5402B91E&quot; rel=&quot;nofollow&quot; target=&quot;_NEW&quot;&gt;\nhttp://img.primetimeshow.in/share.php?id=5D68_5402B91E&lt;/a&gt;\n\n\nGeneral\nComplete name : D:TDouble Di Trouble.avi\nFormat : AVI\nFormat/Info : Audio Video Interleave\nFile size : 696 MiB\nDuration : 1h 49mn\nOverall bit rate : 884 Kbps\n\nVideo\nID : 0\nFormat : MPEG-4 Visual\nFormat profile : Advanced Simple@L5\nFormat settings, BVOP : 2\nFormat settings, QPel : No\nFormat settings, GMC : No warppoints\nFormat settings, Matrix : Default (H.263)\nCodec ID : XVID\nCodec ID/Hint : XviD\nDuration : 1h 49mn\nBit rate : 781 Kbps\nWidth : 640 pixels\nHeight : 272 pixels\nDisplay aspect ratio : 2.35:1\nFrame rate : 29.970 fps\nColor space : YUV\nChroma subsampling : 4:2:0\nBit depth : 8 bits\nScan type : Progressive\nCompression mode : Lossy\nBits/(Pixel*Frame) : 0.150\nStream size : 614 MiB (88%)\nWriting library : XviD 1.2.1 (UTC 2008-12-04)\n\nAudio\nID : 1\nFormat : MPEG Audio\nFormat version : Version 1\nFormat profile : Layer 3\nMode : Joint stereo\nMode extension : MS Stereo\nCodec ID : 55\nCodec ID/Hint : MP3\nDuration : 1h 49mn\nBit rate mode : Constant\nBit rate : 96.0 Kbps\nChannel(s) : 2 channels\nSampling rate : 32.0 KHz\nCompression mode : Lossy\nStream size : 75.5 MiB (11%)\nAlignment : Aligned on interleaves\nInterleave, duration : 133 ms (4.00 video frames)\nInterleave, preload duration : 216 ms\nTitle : VTS_01_1 T01 2_0ch 192Kbps DELAY 0ms\nWriting library : LAME3.99r\nEncoding settings : -m j -V 4 -q 2 -lowpass 15.1 -b 96\n\nSAMPLE included in torrent\n\nThanks to Team TNT !!\n\nSeed n Enjoy!!\n","torrent":{"xt":"urn:btih:1b06c3fbdf0016be50cedb00bd3a066e003ca9a8","amp;dn":"Double+Di+Trouble+%282014%29+%5B1CD%5D+DVDSCR+Rip+Xvid+Mp3+TeamTNT+Exclu","amp;tr":["udp%3A%2F%2Ftracker.openbittorrent.com%3A80","udp%3A%2F%2Fopen.demonii.com%3A1337","udp%3A%2F%2Ftracker.coppersurfer.tk%3A6969","udp%3A%2F%2Fexodus.desync.com%3A6969"],"infoHash":"1b06c3fbdf0016be50cedb00bd3a066e003ca9a8","infoHashBuffer":{"type":"Buffer","data":[27,6,195,251,223,0,22,190,80,206,219,0,189,58,6,110,0,60,169,168]},"announce":[],"urlList":[]}}